<?xml version="1.0" encoding="utf-8"?>
<!-- Generator: Adobe Illustrator 25.2.1, SVG Export Plug-In . SVG Version: 6.00 Build 0)  -->
<svg version="1.1" id="图层_1" xmlns="http://www.w3.org/2000/svg" xmlns:xlink="http://www.w3.org/1999/xlink" x="0px" y="0px"
	 viewBox="0 0 1280 380" style="enable-background:new 0 0 1280 380;" xml:space="preserve">
<style type="text/css">
	.st0{fill:#13131C;}
	.st1{fill:url(#SVGID_1_);}
	.st2{fill:url(#SVGID_2_);}
	.st3{fill:url(#SVGID_3_);}
	.st4{fill:url(#SVGID_4_);}
	.st5{fill:url(#SVGID_5_);}
	.st6{fill:url(#SVGID_6_);}
	.st7{fill:#FFFFFF;}
	.st8{fill:url(#SVGID_7_);}
	.st9{fill:url(#SVGID_8_);}
	.st10{fill:url(#SVGID_9_);}
	.st11{fill:url(#SVGID_10_);}
	.st12{fill:url(#SVGID_11_);}
	.st13{fill:url(#SVGID_12_);}
	.st14{fill:url(#SVGID_13_);}
	.st15{fill:url(#SVGID_14_);}
	.st16{fill:url(#SVGID_15_);}
	.st17{fill:url(#SVGID_16_);}
	.st18{fill:url(#SVGID_17_);}
	.st19{fill:url(#SVGID_18_);}
</style>
<g>
	<g>
		<linearGradient id="SVGID_1_" gradientUnits="userSpaceOnUse" x1="109.1804" y1="214.2545" x2="225.3937" y2="98.0412">
			<stop  offset="0" style="stop-color:#7B3BF4"/>
			<stop  offset="0.3048" style="stop-color:#4D6DEE"/>
			<stop  offset="0.617" style="stop-color:#239AE9"/>
			<stop  offset="0.8593" style="stop-color:#0AB6E5"/>
			<stop  offset="1" style="stop-color:#00C0E4"/>
		</linearGradient>
		<path class="st1" d="M72.9,171.9c0-46.2,37.5-83.7,83.7-83.7s83.7,37.5,83.7,83.7c0,29.7-15.5,55.7-38.7,70.6
			c29.7-14.7,50.2-45.3,50.2-80.8c0-49.8-40.3-90.1-90.1-90.1S71.6,112,71.6,161.7c0,5.6,0.5,11.1,1.5,16.5
			C73,176.1,72.9,174,72.9,171.9z"/>
	</g>
	<g>
		<linearGradient id="SVGID_2_" gradientUnits="userSpaceOnUse" x1="97.0052" y1="287.2462" x2="262.2249" y2="122.0264">
			<stop  offset="0" style="stop-color:#7B3BF4"/>
			<stop  offset="0.3048" style="stop-color:#4D6DEE"/>
			<stop  offset="0.617" style="stop-color:#239AE9"/>
			<stop  offset="0.8593" style="stop-color:#0AB6E5"/>
			<stop  offset="1" style="stop-color:#00C0E4"/>
		</linearGradient>
		<path class="st2" d="M299.9,159.7c0.1,1.6,0.1,3.1,0.1,4.7c0.3,67.7-54.3,122.7-122,123c-67.2,0.3-122-53.6-123-120.7
			c-1.6,8-2.4,16.3-2.3,24.7c0.3,69.3,56.8,125.3,126.1,125s125.3-56.8,125-126.1C303.8,179.8,302.4,169.5,299.9,159.7z"/>
	</g>
	<g>
		<linearGradient id="SVGID_3_" gradientUnits="userSpaceOnUse" x1="123.7583" y1="264.8856" x2="276.2501" y2="112.3937">
			<stop  offset="0" style="stop-color:#7B3BF4"/>
			<stop  offset="0.3048" style="stop-color:#4D6DEE"/>
			<stop  offset="0.617" style="stop-color:#239AE9"/>
			<stop  offset="0.8593" style="stop-color:#0AB6E5"/>
			<stop  offset="1" style="stop-color:#00C0E4"/>
		</linearGradient>
		<path class="st3" d="M267,151.6c0,56.1-45.4,101.5-101.5,101.5c-38.3,0-71.6-21.2-88.9-52.5c13.8,43.7,54.6,75.3,102.8,75.3
			c59.6,0,107.8-48.3,107.8-107.8c0-41.9-23.9-78.2-58.8-96C252,90.7,267,119.4,267,151.6z"/>
	</g>
</g>
<g>
	<path class="st7" d="M450.4,125.5c0.4,0.4,0.7,1,0.7,1.6v14.2c0,0.6-0.2,1.2-0.7,1.6c-0.4,0.4-1,0.7-1.6,0.7h-23.7
		c-0.6,0-0.9,0.3-0.9,0.9v108.7c0,0.6-0.2,1.2-0.7,1.6c-0.4,0.4-1,0.7-1.6,0.7h-17.2c-0.6,0-1.2-0.2-1.6-0.7c-0.4-0.4-0.7-1-0.7-1.6
		V144.4c0-0.6-0.3-0.9-0.9-0.9h-22.4c-0.6,0-1.2-0.2-1.6-0.7c-0.4-0.4-0.7-1-0.7-1.6v-14.2c0-0.6,0.2-1.1,0.7-1.6
		c0.4-0.4,1-0.7,1.6-0.7h69.5C449.4,124.8,450,125,450.4,125.5z"/>
	<path class="st7" d="M460.3,248.6c-5.9-5.5-8.9-12.9-8.9-22.2v-37.5c0-9.2,3-16.6,8.9-22.1c6-5.5,14-8.3,24.2-8.3
		c10.3,0,18.5,2.8,24.4,8.3c6,5.5,8.9,12.9,8.9,22.1v37.5c0,9.3-3,16.7-8.9,22.2c-5.9,5.5-14.1,8.2-24.5,8.2
		C474.3,256.8,466.2,254.1,460.3,248.6z M493.1,234.3c2.2-2.4,3.3-5.6,3.3-9.6v-34.3c0-3.9-1.1-7-3.3-9.5c-2.2-2.5-5-3.7-8.5-3.7
		c-3.5,0-6.3,1.2-8.4,3.6c-2.1,2.4-3.2,5.6-3.2,9.6v34.3c0,4,1.1,7.2,3.2,9.6c2.1,2.4,4.9,3.6,8.4,3.6
		C488.1,238,490.9,236.8,493.1,234.3z"/>
	<path class="st7" d="M534.1,254.7c-0.4-0.4-0.7-1-0.7-1.6v-126c0-0.6,0.2-1.1,0.7-1.6c0.4-0.4,1-0.7,1.6-0.7h17.1
		c0.6,0,1.1,0.2,1.6,0.7c0.4,0.4,0.7,1,0.7,1.6v66.4c0,0.5,0.1,0.7,0.4,0.7c0.2,0,0.5-0.2,0.7-0.6l20.3-32.1c0.5-1,1.4-1.5,2.6-1.5
		H597c0.9,0,1.4,0.3,1.7,0.8c0.2,0.6,0.1,1.2-0.4,2l-19.4,29.3c-0.2,0.5-0.3,0.9-0.2,1.3l22.4,59.3c0.1,0.3,0.2,0.6,0.2,0.9
		c0,1.1-0.7,1.7-2.1,1.7h-17.7c-1.2,0-2.1-0.6-2.4-1.9l-13.8-42.1c-0.1-0.4-0.3-0.6-0.6-0.7c-0.2-0.1-0.4,0.1-0.6,0.5l-8.8,13
		c-0.3,0.5-0.4,0.9-0.4,1.1v27.8c0,0.6-0.2,1.2-0.7,1.6c-0.4,0.4-1,0.7-1.6,0.7h-17.1C535.1,255.3,534.5,255.1,534.1,254.7z"/>
	<path class="st7" d="M674.7,214.9c-0.4,0.4-1,0.7-1.6,0.7h-41.2c-0.6,0-0.9,0.3-0.9,0.9v8.4c0,3.9,1.1,7,3.2,9.5
		c2.1,2.5,4.8,3.7,8.2,3.7c2.9,0,5.3-0.9,7.4-2.7c2-1.8,3.4-4.1,4-7c0.4-1.2,1.2-1.9,2.4-1.9l16.6,0.7c0.6,0,1.1,0.2,1.6,0.7
		c0.4,0.4,0.6,1,0.5,1.8c-0.9,8.7-4,15.4-9.5,20c-5.5,4.7-13.1,7-22.9,7c-10.2,0-18.2-2.7-24.1-8.1c-5.9-5.4-8.9-12.8-8.9-22.1
		v-37.8c0-9.1,2.9-16.4,8.9-21.9c5.9-5.5,13.9-8.3,24.1-8.3c10.2,0,18.2,2.8,24.1,8.3c5.9,5.5,8.9,12.8,8.9,21.9v24.6
		C675.3,214,675.1,214.5,674.7,214.9z M634.1,180.9c-2.1,2.5-3.2,5.7-3.2,9.5v8.4c0,0.6,0.3,0.9,0.9,0.9h21.1c0.6,0,0.9-0.3,0.9-0.9
		v-8.4c0-4-1.1-7.2-3.2-9.6c-2.1-2.4-4.9-3.6-8.4-3.6C639,177.2,636.2,178.4,634.1,180.9z"/>
	<path class="st7" d="M749.4,166.7c4.2,5.4,6.2,13.1,6.2,23v63.4c0,0.6-0.2,1.2-0.7,1.6c-0.4,0.4-1,0.7-1.6,0.7h-17.1
		c-0.6,0-1.2-0.2-1.6-0.7c-0.4-0.4-0.7-1-0.7-1.6v-61.7c0-4.5-0.9-8-2.8-10.4c-1.9-2.5-4.5-3.7-8-3.7c-3.6,0-6.4,1.3-8.4,3.9
		c-2,2.6-3,6.2-3,10.8v61.1c0,0.6-0.2,1.2-0.7,1.6c-0.4,0.4-1,0.7-1.6,0.7h-17.1c-0.6,0-1.2-0.2-1.6-0.7c-0.4-0.4-0.7-1-0.7-1.6
		v-90.8c0-0.6,0.2-1.1,0.7-1.6c0.4-0.4,1-0.7,1.6-0.7h17.1c0.6,0,1.1,0.2,1.6,0.7c0.4,0.4,0.7,1,0.7,1.6v3.7c0,0.4,0.2,0.6,0.5,0.7
		c0.3,0.1,0.7-0.2,1-0.7c4.2-5,10.1-7.5,17.7-7.5C739.1,158.6,745.2,161.3,749.4,166.7z"/>
	<path class="st7" d="M779.3,247.5c-6.3-6.2-9.5-14.4-9.5-24.4v-4.8c0-0.6,0.2-1.1,0.7-1.6c0.4-0.4,1-0.7,1.6-0.7h17
		c0.6,0,1.1,0.2,1.6,0.7c0.4,0.4,0.7,1,0.7,1.6v3.7c0,4.8,1.2,8.8,3.6,11.7c2.4,3,5.6,4.5,9.4,4.5c3.9,0,7-1.4,9.5-4.2
		c2.5-2.8,3.7-6.5,3.7-11.1c0-3.2-0.7-6-2-8.4c-1.4-2.4-3.3-4.6-5.8-6.7c-2.5-2.1-6.5-5.2-11.9-9.1c-6.2-4.5-11.2-8.4-15-11.9
		c-3.8-3.5-7-7.7-9.5-12.6c-2.5-4.9-3.8-10.6-3.8-17.1c0-10.3,3.1-18.5,9.3-24.6c6.2-6.1,14.4-9.1,24.6-9.1c10.3,0,18.6,3.2,25,9.6
		c6.3,6.4,9.5,14.9,9.5,25.4v4.5c0,0.6-0.2,1.2-0.7,1.6c-0.4,0.4-1,0.7-1.6,0.7h-16.8c-0.6,0-1.2-0.2-1.6-0.7
		c-0.4-0.4-0.7-1-0.7-1.6V158c0-4.8-1.2-8.7-3.6-11.7c-2.4-2.9-5.6-4.4-9.6-4.4c-3.7,0-6.8,1.3-9.1,4c-2.4,2.7-3.5,6.4-3.5,11.1
		c0,4.5,1.3,8.3,3.8,11.4c2.5,3.1,7.5,7.4,15,12.9c7.6,5.6,13.3,10.2,17.1,13.7c3.9,3.5,6.8,7.4,8.9,11.7c2.1,4.2,3.2,9.3,3.2,15.1
		c0,10.6-3.2,19-9.5,25.4c-6.3,6.4-14.7,9.6-25,9.6C794,256.8,785.7,253.7,779.3,247.5z"/>
	<path class="st7" d="M892.2,174.7c-0.4,0.4-1,0.7-1.6,0.7H879c-0.6,0-0.9,0.3-0.9,0.9v48.8c0,4.4,0.8,7.4,2.4,9
		c1.6,1.7,4,2.5,7.3,2.3h1.3c0.6,0,1.1,0.2,1.6,0.7c0.4,0.4,0.7,1,0.7,1.6v14.4c0,0.6-0.2,1.2-0.7,1.6c-0.4,0.4-1,0.7-1.6,0.7h-6.3
		c-8.5,0-14.8-1.6-19.1-4.7c-4.3-3.1-6.4-8.9-6.4-17.5v-56.9c0-0.6-0.3-0.9-0.9-0.9h-6.5c-0.6,0-1.2-0.2-1.6-0.7
		c-0.4-0.4-0.7-1-0.7-1.6v-10.8c0-0.6,0.2-1.1,0.7-1.6c0.4-0.4,1-0.7,1.6-0.7h6.5c0.6,0,0.9-0.3,0.9-0.9v-20.5
		c0-0.6,0.2-1.1,0.7-1.6c0.4-0.4,1-0.7,1.6-0.7h16.4c0.6,0,1.1,0.2,1.6,0.7c0.4,0.4,0.7,1,0.7,1.6v20.5c0,0.6,0.3,0.9,0.9,0.9h11.6
		c0.6,0,1.1,0.2,1.6,0.7c0.4,0.4,0.7,1,0.7,1.6v10.8C892.8,173.7,892.6,174.3,892.2,174.7z"/>
	<path class="st7" d="M961.8,167.1c6.1,5.7,9.1,13.2,9.1,22.6v63.4c0,0.6-0.2,1.2-0.7,1.6c-0.4,0.4-1,0.7-1.6,0.7h-17.1
		c-0.6,0-1.2-0.2-1.6-0.7c-0.4-0.4-0.7-1-0.7-1.6v-3.5c0-0.4-0.1-0.6-0.4-0.7c-0.3-0.1-0.5,0-0.7,0.4c-4.4,5.1-10.7,7.6-19,7.6
		c-7.1,0-13.3-2-18.7-6.1c-5.4-4-8.1-11.4-8.1-22.1c0-11.2,3.3-19.1,9.8-23.9c6.5-4.7,15.4-7.1,26.6-7.1h9.7c0.6,0,0.9-0.3,0.9-0.9
		v-4.8c0-4.5-1.1-8-3.4-10.7c-2.2-2.7-5-4-8.4-4c-2.6,0-4.8,0.8-6.5,2.5c-1.7,1.7-2.8,3.9-3.2,6.8c-0.1,1.5-0.9,2.2-2.4,2.2h-18.1
		c-1.5,0-2.2-0.7-2.1-2.2c0.6-8.4,3.9-15.2,10-20.3c6-5.1,13.6-7.6,22.6-7.6C947.8,158.6,955.7,161.4,961.8,167.1z M945,235.4
		c2.9-2.4,4.3-5.7,4.3-9.9v-10.6c0-0.6-0.3-0.9-0.9-0.9h-9.7c-4.2,0-7.6,1.2-10.3,3.4c-2.6,2.3-3.9,5.6-3.9,10c0,3.9,1,6.7,3,8.7
		c2,1.9,4.5,2.9,7.6,2.9C938.9,238.9,942.2,237.7,945,235.4z"/>
	<path class="st7" d="M1025.6,174.7c-0.4,0.4-1,0.7-1.6,0.7h-11.6c-0.6,0-0.9,0.3-0.9,0.9v48.8c0,4.4,0.8,7.4,2.4,9
		c1.6,1.7,4,2.5,7.3,2.3h1.3c0.6,0,1.1,0.2,1.6,0.7c0.4,0.4,0.7,1,0.7,1.6v14.4c0,0.6-0.2,1.2-0.7,1.6c-0.4,0.4-1,0.7-1.6,0.7h-6.3
		c-8.5,0-14.8-1.6-19.1-4.7c-4.3-3.1-6.4-8.9-6.4-17.5v-56.9c0-0.6-0.3-0.9-0.9-0.9h-6.5c-0.6,0-1.2-0.2-1.6-0.7
		c-0.4-0.4-0.7-1-0.7-1.6v-10.8c0-0.6,0.2-1.1,0.7-1.6c0.4-0.4,1-0.7,1.6-0.7h6.5c0.6,0,0.9-0.3,0.9-0.9v-20.5
		c0-0.6,0.2-1.1,0.7-1.6c0.4-0.4,1-0.7,1.6-0.7h16.4c0.6,0,1.1,0.2,1.6,0.7c0.4,0.4,0.7,1,0.7,1.6v20.5c0,0.6,0.3,0.9,0.9,0.9h11.6
		c0.6,0,1.1,0.2,1.6,0.7c0.4,0.4,0.7,1,0.7,1.6v10.8C1026.3,173.7,1026.1,174.3,1025.6,174.7z"/>
	<path class="st7" d="M1040.8,143.3c-2.5-2.5-3.7-5.7-3.7-9.5c0-3.9,1.2-7,3.7-9.5c2.5-2.5,5.7-3.7,9.5-3.7c3.9,0,7,1.2,9.4,3.7
		c2.4,2.5,3.6,5.7,3.6,9.5c0,3.9-1.2,7-3.7,9.5c-2.5,2.5-5.6,3.7-9.3,3.7C1046.5,147,1043.3,145.8,1040.8,143.3z M1040.4,254.7
		c-0.4-0.4-0.7-1-0.7-1.6v-90.8c0-0.6,0.2-1.1,0.7-1.6c0.4-0.4,1-0.7,1.6-0.7h17.2c0.6,0,1.1,0.2,1.6,0.7c0.4,0.4,0.7,1,0.7,1.6
		v90.8c0,0.6-0.2,1.2-0.7,1.6c-0.4,0.4-1,0.7-1.6,0.7H1042C1041.3,255.3,1040.8,255.1,1040.4,254.7z"/>
	<path class="st7" d="M1086.4,248.6c-5.9-5.5-8.9-12.9-8.9-22.2v-37.5c0-9.2,3-16.6,8.9-22.1c6-5.5,14-8.3,24.2-8.3
		c10.3,0,18.5,2.8,24.4,8.3c6,5.5,8.9,12.9,8.9,22.1v37.5c0,9.3-3,16.7-8.9,22.2c-5.9,5.5-14.1,8.2-24.5,8.2
		C1100.4,256.8,1092.3,254.1,1086.4,248.6z M1119.2,234.3c2.2-2.4,3.3-5.6,3.3-9.6v-34.3c0-3.9-1.1-7-3.3-9.5
		c-2.2-2.5-5-3.7-8.5-3.7c-3.5,0-6.3,1.2-8.4,3.6c-2.1,2.4-3.2,5.6-3.2,9.6v34.3c0,4,1.1,7.2,3.2,9.6c2.1,2.4,4.9,3.6,8.4,3.6
		C1114.2,238,1117,236.8,1119.2,234.3z"/>
	<path class="st7" d="M1218.8,166.7c4.2,5.4,6.2,13.1,6.2,23v63.4c0,0.6-0.2,1.2-0.7,1.6c-0.4,0.4-1,0.7-1.6,0.7h-17.1
		c-0.6,0-1.2-0.2-1.6-0.7c-0.4-0.4-0.7-1-0.7-1.6v-61.7c0-4.5-0.9-8-2.8-10.4c-1.9-2.5-4.5-3.7-8-3.7c-3.6,0-6.4,1.3-8.4,3.9
		c-2,2.6-3,6.2-3,10.8v61.1c0,0.6-0.2,1.2-0.7,1.6c-0.4,0.4-1,0.7-1.6,0.7h-17.1c-0.6,0-1.2-0.2-1.6-0.7c-0.4-0.4-0.7-1-0.7-1.6
		v-90.8c0-0.6,0.2-1.1,0.7-1.6c0.4-0.4,1-0.7,1.6-0.7h17.1c0.6,0,1.1,0.2,1.6,0.7c0.4,0.4,0.7,1,0.7,1.6v3.7c0,0.4,0.2,0.6,0.5,0.7
		c0.3,0.1,0.7-0.2,1-0.7c4.2-5,10.1-7.5,17.7-7.5C1208.5,158.6,1214.6,161.3,1218.8,166.7z"/>
</g>
</svg>
