<svg width="1074" height="240" viewBox="0 0 1074 240" fill="none" xmlns="http://www.w3.org/2000/svg">
  <path d="M312 201H330.96V125.4H427.92V201H446.88V33H427.92V107.64H330.96V33H312V201Z" fill="#F2F2F2" />
  <path d="M509.344 201H631.984V183.72H528.304V124.92H619.984V107.64H528.304V50.28H630.784V33H509.344V201Z"
    fill="#F2F2F2" />
  <path d="M685.125 201H798.645V183.48H704.085V33H685.125V201Z" fill="#F2F2F2" />
  <path d="M850.399 201H869.359V33H850.399V201Z" fill="#F2F2F2" />
  <path
    d="M1048.28 33L996.923 102.12L945.563 33H923.243L985.163 115.32L920.843 201H942.683L996.443 128.52L1050.2 201H1072.76L1008.44 115.32L1070.36 33H1048.28Z"
    fill="#F2F2F2" />
  <path fill-rule="evenodd" clip-rule="evenodd"
    d="M190.8 66C190.8 69.3137 193.486 72 196.8 72C200.114 72 202.8 69.3137 202.8 66V37.2C202.8 33.8863 200.114 31.2 196.8 31.2C193.486 31.2 190.8 33.8863 190.8 37.2V66ZM138 97.2C138 100.514 140.686 103.2 144 103.2C147.314 103.2 150 100.514 150 97.2V75.6C150 72.2863 147.314 69.6 144 69.6C140.686 69.6 138 72.2863 138 75.6V97.2ZM70.8 186C70.8 189.314 73.4862 192 76.8 192C80.1137 192 82.8 189.314 82.8 186V157.2C82.8 153.886 80.1137 151.2 76.8 151.2C73.4862 151.2 70.8 153.886 70.8 157.2V186ZM19.2 204C15.8862 204 13.2 201.314 13.2 198V181.2C13.2 177.886 15.8862 175.2 19.2 175.2C22.5137 175.2 25.2 177.886 25.2 181.2V198C25.2 201.314 22.5137 204 19.2 204ZM50.3999 208.8C47.0862 208.8 44.3999 206.114 44.3999 202.8V181.2C44.3999 177.886 47.0862 175.2 50.3999 175.2C53.7137 175.2 56.3999 177.886 56.3999 181.2V202.8C56.3999 206.114 53.7137 208.8 50.3999 208.8ZM97.1999 164.4C97.1999 167.714 99.8862 170.4 103.2 170.4C106.514 170.4 109.2 167.714 109.2 164.4V147.6C109.2 144.286 106.514 141.6 103.2 141.6C99.8862 141.6 97.1999 144.286 97.1999 147.6V164.4ZM170.4 84C167.086 84 164.4 81.3137 164.4 78V56.4C164.4 53.0863 167.086 50.4 170.4 50.4C173.714 50.4 176.4 53.0863 176.4 56.4V78C176.4 81.3137 173.714 84 170.4 84ZM217.2 51.6C217.2 54.9137 219.886 57.6 223.2 57.6C226.514 57.6 229.2 54.9137 229.2 51.6V37.2C229.2 33.8863 226.514 31.2 223.2 31.2C219.886 31.2 217.2 33.8863 217.2 37.2V51.6Z"
    fill="url(#paint0_linear_371_2367)" />
  <path fill-rule="evenodd" clip-rule="evenodd"
    d="M0.0261597 50.1153C0.459813 56.7285 6.17243 61.7381 12.7856 61.3044C33.5147 59.9451 84.1205 70.4991 110.335 126.423L110.553 126.888L110.81 127.333C122.54 147.639 135.759 166 154.135 179.709C172.722 193.575 195.721 202.051 225.989 204.103C232.601 204.551 238.325 199.554 238.773 192.942C239.221 186.33 234.224 180.606 227.612 180.158C201.24 178.37 182.839 171.179 168.486 160.472C154.032 149.689 142.83 134.716 131.841 115.759C100.388 49.2157 39.2193 35.5195 11.2152 37.3558C4.60203 37.7895 -0.407495 43.5021 0.0261597 50.1153Z"
    fill="#5BB1E9" />
  <defs>
    <linearGradient id="paint0_linear_371_2367" x1="-9.59393" y1="-1.2" x2="217.303" y2="92.4332"
      gradientUnits="userSpaceOnUse">
      <stop offset="0.015625" stop-color="#6EE5B3" />
      <stop offset="0.430034" stop-color="#68D8E2" />
      <stop offset="1" stop-color="#4475F6" />
    </linearGradient>
  </defs>
</svg>
